<mxfile host="app.diagrams.net" modified="2024-05-21T16:06:22.354Z" agent="Mozilla/5.0 (Windows NT 10.0; Win64; x64) AppleWebKit/537.36 (KHTML, like Gecko) Chrome/124.0.0.0 Safari/537.36" etag="YXPyfc4fy86nCNr8NdLj" version="24.4.4" type="google">
  <diagram name="Page-1" id="MfGCt3PgnTk4VLkUIaD0">
    <mxGraphModel grid="1" page="1" gridSize="10" guides="1" tooltips="1" connect="1" arrows="1" fold="1" pageScale="1" pageWidth="827" pageHeight="1169" math="0" shadow="0">
      <root>
        <mxCell id="0" />
        <mxCell id="1" parent="0" />
        <mxCell id="A0NLCHDhMUv0UZf2OyCF-1" value="&lt;h3&gt;Condition 1&lt;/h3&gt;" style="rounded=0;whiteSpace=wrap;html=1;" vertex="1" parent="1">
          <mxGeometry x="120" y="100" width="160" height="80" as="geometry" />
        </mxCell>
        <mxCell id="A0NLCHDhMUv0UZf2OyCF-2" value="" style="endArrow=classic;html=1;rounded=0;" edge="1" parent="1">
          <mxGeometry width="50" height="50" relative="1" as="geometry">
            <mxPoint x="190" y="180" as="sourcePoint" />
            <mxPoint x="190" y="250" as="targetPoint" />
          </mxGeometry>
        </mxCell>
        <mxCell id="A0NLCHDhMUv0UZf2OyCF-3" value="" style="endArrow=classic;html=1;rounded=0;" edge="1" parent="1">
          <mxGeometry width="50" height="50" relative="1" as="geometry">
            <mxPoint x="280" y="150" as="sourcePoint" />
            <mxPoint x="440" y="250" as="targetPoint" />
            <Array as="points">
              <mxPoint x="440" y="150" />
            </Array>
          </mxGeometry>
        </mxCell>
        <mxCell id="A0NLCHDhMUv0UZf2OyCF-4" value="&lt;h3&gt;statement 1&lt;/h3&gt;" style="rounded=0;whiteSpace=wrap;html=1;" vertex="1" parent="1">
          <mxGeometry x="130" y="250" width="120" height="60" as="geometry" />
        </mxCell>
        <mxCell id="A0NLCHDhMUv0UZf2OyCF-5" value="&lt;h3&gt;statement 2&lt;/h3&gt;" style="rounded=0;whiteSpace=wrap;html=1;" vertex="1" parent="1">
          <mxGeometry x="380" y="250" width="120" height="60" as="geometry" />
        </mxCell>
        <mxCell id="A0NLCHDhMUv0UZf2OyCF-6" value="&lt;h4&gt;YES&lt;/h4&gt;" style="text;html=1;align=center;verticalAlign=middle;resizable=0;points=[];autosize=1;strokeColor=none;fillColor=none;" vertex="1" parent="1">
          <mxGeometry x="150" y="185" width="50" height="60" as="geometry" />
        </mxCell>
        <mxCell id="A0NLCHDhMUv0UZf2OyCF-8" value="&lt;h4&gt;NO&lt;/h4&gt;" style="text;html=1;align=center;verticalAlign=middle;resizable=0;points=[];autosize=1;strokeColor=none;fillColor=none;" vertex="1" parent="1">
          <mxGeometry x="340" y="110" width="40" height="60" as="geometry" />
        </mxCell>
        <mxCell id="A0NLCHDhMUv0UZf2OyCF-9" value="" style="endArrow=classic;html=1;rounded=0;" edge="1" parent="1">
          <mxGeometry width="50" height="50" relative="1" as="geometry">
            <mxPoint x="189.5" y="310" as="sourcePoint" />
            <mxPoint x="189.5" y="410" as="targetPoint" />
          </mxGeometry>
        </mxCell>
        <mxCell id="A0NLCHDhMUv0UZf2OyCF-10" value="&lt;h3&gt;Condition 2&lt;/h3&gt;" style="rounded=0;whiteSpace=wrap;html=1;" vertex="1" parent="1">
          <mxGeometry x="110" y="410" width="160" height="80" as="geometry" />
        </mxCell>
        <mxCell id="A0NLCHDhMUv0UZf2OyCF-11" value="" style="endArrow=classic;html=1;rounded=0;exitX=0.5;exitY=1;exitDx=0;exitDy=0;" edge="1" parent="1" source="A0NLCHDhMUv0UZf2OyCF-5">
          <mxGeometry width="50" height="50" relative="1" as="geometry">
            <mxPoint x="430" y="330" as="sourcePoint" />
            <mxPoint x="190" y="360" as="targetPoint" />
            <Array as="points">
              <mxPoint x="440" y="360" />
            </Array>
          </mxGeometry>
        </mxCell>
        <mxCell id="A0NLCHDhMUv0UZf2OyCF-12" value="" style="endArrow=classic;html=1;rounded=0;" edge="1" parent="1">
          <mxGeometry width="50" height="50" relative="1" as="geometry">
            <mxPoint x="189.5" y="490" as="sourcePoint" />
            <mxPoint x="190" y="590" as="targetPoint" />
          </mxGeometry>
        </mxCell>
        <mxCell id="A0NLCHDhMUv0UZf2OyCF-13" value="&lt;h3&gt;statement 3&lt;/h3&gt;" style="rounded=0;whiteSpace=wrap;html=1;" vertex="1" parent="1">
          <mxGeometry x="130" y="590" width="120" height="60" as="geometry" />
        </mxCell>
        <mxCell id="A0NLCHDhMUv0UZf2OyCF-14" value="" style="endArrow=classic;html=1;rounded=0;" edge="1" parent="1">
          <mxGeometry width="50" height="50" relative="1" as="geometry">
            <mxPoint x="189.5" y="650" as="sourcePoint" />
            <mxPoint x="189.5" y="720" as="targetPoint" />
          </mxGeometry>
        </mxCell>
        <mxCell id="A0NLCHDhMUv0UZf2OyCF-15" value="&lt;h3&gt;END&lt;/h3&gt;" style="rounded=0;whiteSpace=wrap;html=1;" vertex="1" parent="1">
          <mxGeometry x="130" y="720" width="120" height="60" as="geometry" />
        </mxCell>
        <mxCell id="A0NLCHDhMUv0UZf2OyCF-16" value="" style="endArrow=classic;html=1;rounded=0;exitX=1;exitY=0.5;exitDx=0;exitDy=0;entryX=1.008;entryY=0.633;entryDx=0;entryDy=0;entryPerimeter=0;" edge="1" parent="1" source="A0NLCHDhMUv0UZf2OyCF-10" target="A0NLCHDhMUv0UZf2OyCF-15">
          <mxGeometry width="50" height="50" relative="1" as="geometry">
            <mxPoint x="230" y="700" as="sourcePoint" />
            <mxPoint x="370" y="620" as="targetPoint" />
            <Array as="points">
              <mxPoint x="460" y="450" />
              <mxPoint x="460" y="758" />
            </Array>
          </mxGeometry>
        </mxCell>
        <mxCell id="A0NLCHDhMUv0UZf2OyCF-17" value="&lt;h4&gt;YES&lt;/h4&gt;" style="text;html=1;align=center;verticalAlign=middle;resizable=0;points=[];autosize=1;strokeColor=none;fillColor=none;" vertex="1" parent="1">
          <mxGeometry x="150" y="503" width="50" height="60" as="geometry" />
        </mxCell>
        <mxCell id="A0NLCHDhMUv0UZf2OyCF-19" value="&lt;h4&gt;NO&lt;/h4&gt;" style="text;html=1;align=center;verticalAlign=middle;resizable=0;points=[];autosize=1;strokeColor=none;fillColor=none;" vertex="1" parent="1">
          <mxGeometry x="340" y="410" width="40" height="60" as="geometry" />
        </mxCell>
      </root>
    </mxGraphModel>
  </diagram>
</mxfile>
